<svg width="24" height="24" viewBox="0 0 24 24" fill="none" xmlns="http://www.w3.org/2000/svg">
<path d="M19 3H20C20 2.44772 19.5523 2 19 2V3ZM19 21V22H20V21H19ZM19 17V18H20V17H19ZM7 3V4H19V3V2H7V3ZM19 3H18V21H19H20V3H19ZM19 21V20H7V21V22H19V21ZM5 19H6V5H5H4V19H5ZM7 21V20C6.44771 20 6 19.5523 6 19H5H4C4 20.6569 5.34315 22 7 22V21ZM7 3V2C5.34315 2 4 3.34315 4 5H5H6C6 4.44772 6.44772 4 7 4V3ZM19 12H18V17H19H20V12H19ZM19 17V16H7V17V18H19V17ZM7 21V22H10V21V20H7V21ZM7 17V16C5.34315 16 4 17.3431 4 19H5H6C6 18.4477 6.44772 18 7 18V17Z" fill="black"/>
</svg>
