<svg width="24" height="24" viewBox="0 0 24 24" fill="none" xmlns="http://www.w3.org/2000/svg">
<path d="M8 3C6.89543 3 6 3.89543 6 5V15C6 16.1046 6.89543 17 8 17H9C10.1046 17 11 16.1046 11 15V5C11 3.89543 10.1046 3 9 3H8Z" fill="black"/>
<path d="M15 7C13.8954 7 13 7.89543 13 9V15C13 16.1046 13.8954 17 15 17H16C17.1046 17 18 16.1046 18 15V9C18 7.89543 17.1046 7 16 7H15Z" fill="black"/>
<path d="M4 19C3.44772 19 3 19.4477 3 20C3 20.5523 3.44772 21 4 21H20C20.5523 21 21 20.5523 21 20C21 19.4477 20.5523 19 20 19H4Z" fill="black"/>
</svg>
