<svg width="24" height="24" viewBox="0 0 24 24" fill="none" xmlns="http://www.w3.org/2000/svg">
<path d="M4 20H20" stroke="black" stroke-width="2" stroke-linecap="round" stroke-linejoin="round"/>
<path d="M15 8C14.4477 8 14 8.44772 14 9V15C14 15.5523 14.4477 16 15 16H16C16.5523 16 17 15.5523 17 15V9C17 8.44772 16.5523 8 16 8H15Z" stroke="black" stroke-width="2" stroke-linecap="round" stroke-linejoin="round"/>
<path d="M8 4C7.44772 4 7 4.44772 7 5V15C7 15.5523 7.44772 16 8 16H9C9.55228 16 10 15.5523 10 15V5C10 4.44772 9.55228 4 9 4H8Z" stroke="black" stroke-width="2" stroke-linecap="round" stroke-linejoin="round"/>
</svg>
