<svg width="24" height="24" viewBox="0 0 24 24" fill="none" xmlns="http://www.w3.org/2000/svg">
<path d="M4 12H7M17 12H20M10 12H14" stroke="black" stroke-width="2" stroke-linecap="round" stroke-linejoin="round"/>
<path d="M8 5C7.44772 5 7 5.44772 7 6V18C7 18.5523 7.44772 19 8 19H9C9.55228 19 10 18.5523 10 18V6C10 5.44772 9.55228 5 9 5H8Z" stroke="black" stroke-width="2" stroke-linecap="round" stroke-linejoin="round"/>
<path d="M15 7C14.4477 7 14 7.44772 14 8V16C14 16.5523 14.4477 17 15 17H16C16.5523 17 17 16.5523 17 16V8C17 7.44772 16.5523 7 16 7H15Z" stroke="black" stroke-width="2" stroke-linecap="round" stroke-linejoin="round"/>
</svg>
