<svg width="24" height="24" viewBox="0 0 24 24" fill="none" xmlns="http://www.w3.org/2000/svg">
<path d="M8 4C6.89543 4 6 4.89543 6 6V11H4C3.44772 11 3 11.4477 3 12C3 12.5523 3.44772 13 4 13H6V18C6 19.1046 6.89543 20 8 20H9C10.1046 20 11 19.1046 11 18V13H13V16C13 17.1046 13.8954 18 15 18H16C17.1046 18 18 17.1046 18 16V13H20C20.5523 13 21 12.5523 21 12C21 11.4477 20.5523 11 20 11H18V8C18 6.89543 17.1046 6 16 6H15C13.8954 6 13 6.89543 13 8V11H11V6C11 4.89543 10.1046 4 9 4H8Z" fill="black"/>
</svg>
