<svg width="16" height="16" viewBox="0 0 16 16" fill="none" xmlns="http://www.w3.org/2000/svg">
<path d="M8.0153 1.00634C9.87013 1.01039 11.6474 1.75111 12.9561 3.06555V3.06555C14.2648 4.37998 14.9977 6.16046 14.9937 8.0153V8.0153C14.9896 9.87013 14.2489 11.6474 12.9345 12.9561V12.9561C11.62 14.2648 9.83954 14.9977 7.9847 14.9937V14.9937C6.12987 14.9896 4.35261 14.2489 3.04392 12.9345V12.9345C1.73522 11.62 1.00228 9.83954 1.00634 7.9847V7.9847C1.01039 6.12987 1.75112 4.35261 3.06555 3.04392V3.04392C4.37999 1.73522 6.16046 1.00228 8.0153 1.00634V1.00634Z" fill="#013399"/>
<path d="M6.50008 5H8.00111M9.5 5H8.00111M8.00111 5V11M8.00111 11H6.5M8.00111 11H9.49992" stroke="white" stroke-width="1.1" stroke-linecap="round" stroke-linejoin="round"/>
</svg>
