<svg width="124" height="143" viewBox="0 0 124 143" fill="none" xmlns="http://www.w3.org/2000/svg">
<path d="M5.16699 0.645508H118.833C121.33 0.645508 123.354 2.6702 123.354 5.16699V136.917C123.354 139.414 121.33 141.438 118.833 141.438H5.16699C2.67032 141.438 0.645689 139.414 0.645508 136.917V5.16699C0.645508 2.67021 2.6702 0.645508 5.16699 0.645508Z" fill="white"/>
<path d="M5.16699 0.645508H118.833C121.33 0.645508 123.354 2.6702 123.354 5.16699V136.917C123.354 139.414 121.33 141.438 118.833 141.438H5.16699C2.67032 141.438 0.645689 139.414 0.645508 136.917V5.16699C0.645508 2.67021 2.6702 0.645508 5.16699 0.645508Z" stroke="#ECEBE9" stroke-width="1.29167"/>
<rect x="10.333" y="25.8335" width="103.333" height="3.875" rx="1.29167" fill="#ECEBE9"/>
<rect x="10.333" y="14.2085" width="98.1667" height="5.16667" rx="1.61458" fill="#ECEBE9"/>
<rect x="10.333" y="33.5835" width="93" height="3.875" rx="1.29167" fill="#ECEBE9"/>
<rect x="10.333" y="41.3335" width="98.1667" height="3.875" rx="1.29167" fill="#ECEBE9"/>
<rect x="10.333" y="49.0835" width="93" height="3.875" rx="1.29167" fill="#ECEBE9"/>
</svg>
