<svg width="24" height="24" viewBox="0 0 24 24" fill="none" xmlns="http://www.w3.org/2000/svg">
<path d="M1.87868 2.87868C2.44129 2.31607 3.20435 2 4 2H7.93C8.42666 2.00008 8.9157 2.12347 9.35291 2.35909C9.7883 2.59373 10.1589 2.93236 10.4317 3.34479L11.2453 4.55001C11.3372 4.6897 11.4627 4.80412 11.6103 4.88274C11.758 4.96135 11.923 5.00169 12.0902 5.00005L12.1 4.99995L20 5C20.7957 5 21.5587 5.31607 22.1213 5.87868C22.6839 6.44129 23 7.20435 23 8V14.5999C23 13.759 22.6888 12.9159 22.0786 12.2651C21.4943 11.642 20.673 11.2416 19.7688 11.2031C19.7535 11.1969 19.7342 11.1886 19.7112 11.1777C19.5901 11.12 19.449 11.028 19.3309 10.918L19.314 10.9024L19.3055 10.8946C18.6914 10.3351 17.8758 10 17 10C16.1242 10 15.3086 10.3351 14.6945 10.8947L14.6781 10.9096L14.67 10.9172C14.5539 11.0254 14.4122 11.118 14.2888 11.1769C14.265 11.1882 14.2451 11.1968 14.2293 11.2031C13.3258 11.2422 12.5053 11.6424 11.9214 12.2651C11.3112 12.9159 11 13.759 11 14.5999V17.3995C11 18.7746 11.3764 19.9888 12.0523 21H4C3.20435 21 2.44129 20.6839 1.87868 20.1213C1.31607 19.5587 1 18.7957 1 18V5C1 4.20435 1.31607 3.44129 1.87868 2.87868Z" fill="#100F0C"/>
<path d="M17 12C16.6386 12 16.2993 12.1381 16.0415 12.373L16.0333 12.3805C15.4847 12.8917 14.7794 13.2 14.375 13.2C13.9888 13.2 13.6325 13.3642 13.3804 13.6331C13.1302 13.8999 13 14.2487 13 14.5999V17.3994C13 18.6436 13.418 19.6359 14.1141 20.3963C14.7851 21.1292 15.6648 21.5934 16.5223 21.9102C16.8259 22.0265 17.1608 22.0302 17.4674 21.9193L17.4759 21.9162C18.3333 21.5975 19.2148 21.1316 19.8869 20.3962C20.582 19.6356 21 18.6437 21 17.3994V14.5999C21 14.2487 20.8698 13.8999 20.6196 13.6331C20.3675 13.3642 20.0112 13.2 19.625 13.2C19.2199 13.2 18.5184 12.8949 17.967 12.3807L17.9585 12.373C17.7007 12.1381 17.3614 12 17 12Z" fill="#100F0C"/>
</svg>
