<svg width="24" height="24" viewBox="0 0 24 24" fill="none" xmlns="http://www.w3.org/2000/svg">
<path d="M10.7 20.0001H4C3.46957 20.0001 2.96086 19.7894 2.58579 19.4143C2.21071 19.0392 2 18.5305 2 18.0001V5.0001C2 4.46966 2.21071 3.96096 2.58579 3.58588C2.96086 3.21081 3.46957 3.0001 4 3.0001H7.9C8.23449 2.99682 8.56445 3.07748 8.8597 3.23472C9.15495 3.39195 9.40604 3.62072 9.59 3.9001L10.4 5.1001C10.5821 5.37663 10.83 5.60362 11.1215 5.7607C11.413 5.91778 11.7389 6.00004 12.07 6.0001H20C20.5304 6.0001 21.0391 6.21081 21.4142 6.58588C21.7893 6.96096 22 7.46966 22 8.0001V12.1001M20 17.3995C20 19.3992 18.6875 20.399 17.1275 20.9789C17.0458 21.0085 16.9571 21.007 16.8763 20.9749C15.3125 20.399 14 19.3992 14 17.3995V14.6C14 14.4939 14.0395 14.3922 14.1098 14.3172C14.1802 14.2422 14.2755 14.2001 14.375 14.2001C15.125 14.2001 16.0625 13.7202 16.715 13.1123C16.7944 13.0399 16.8955 13.0001 17 13.0001C17.1045 13.0001 17.2056 13.0399 17.285 13.1123C17.9412 13.7242 18.875 14.2001 19.625 14.2001C19.7245 14.2001 19.8198 14.2422 19.8902 14.3172C19.9605 14.3922 20 14.4939 20 14.6V17.3995Z" stroke="#100F0C" stroke-width="2" stroke-linecap="round" stroke-linejoin="round"/>
</svg>
