<svg width="106" height="32" viewBox="0 0 106 32" fill="none" xmlns="http://www.w3.org/2000/svg">
<path d="M17.9239 21.9086L14.9775 23.8629V24H24.3077V23.8629L21.3613 21.9086V2.09143L24.3077 0.137143V0H14.9775V0.137143L17.9239 2.09143V10.8H6.38385V2.09143L9.33024 0.137143V0H0V0.137143L2.94639 2.09143V21.9086L0 23.8629V24H9.33024V23.8629L6.38385 21.9086V12.3086H17.9239V21.9086ZM30.9371 24.3429C32.7962 24.3429 34.6552 23.28 35.953 21.8057V24H41.8458V23.8629L39.18 21.84V12.0343C39.18 8.70857 36.7948 7.06286 32.9715 7.06286C30.9722 7.06286 28.2363 7.71429 26.4825 8.4V12.6514H26.6228C28.7273 9.84 30.7267 8.43429 32.726 8.43429C34.7253 8.43429 35.953 9.80571 35.953 12.3771V14.0914L31.6036 15.0857C27.675 15.9429 25.9212 17.4514 25.9212 19.8171C25.9212 22.4229 28.096 24.3429 30.9371 24.3429ZM32.0596 22.1486C30.4811 22.1486 29.3236 21.0171 29.3236 19.4743C29.3236 17.9314 30.3759 16.6971 32.4454 16.2514L35.953 15.4629V20.6057C34.4798 21.6343 33.182 22.1486 32.0596 22.1486ZM55.6658 10.6286L62.681 24.48H63.3124L70.1873 9.63429L72.2919 7.61143V7.47429H65.8729V7.57714L68.5387 9.46286L63.8034 19.6457L58.6122 9.46286L61.2078 7.57714V7.47429H55.7359C52.4037 7.47429 50.1939 8.46857 48.4401 10.4229V7.23429L42.5473 8.57143V8.74286L45.2131 10.2514V21.84L42.5473 23.8629V24H51.8074V23.8629L48.4401 21.84V12.0343C49.6678 10.6971 51.141 10.08 52.6843 10.08C53.6664 10.08 54.5784 10.2171 55.6658 10.6286ZM79.9034 24.3429C83.1304 24.3429 84.8842 22.3886 86.7081 20.4686L85.8312 19.68C84.0424 21.3257 82.6744 22.0457 80.8855 22.0457C77.448 22.0457 74.8875 18.96 74.8875 14.64H86.6029V14.1257C86.6029 10.08 84.1476 7.06286 80.1138 7.06286C75.6241 7.06286 71.9411 11.0057 71.9411 15.8743C71.9411 20.7771 75.4487 24.3429 79.9034 24.3429ZM83.0953 13.1657H74.9927C75.4136 10.1829 77.3428 8.46857 79.5526 8.46857C81.7624 8.46857 83.1304 10.0114 83.1304 12.48C83.1304 12.7886 83.1304 13.0286 83.0953 13.1657ZM89.0933 9.63429L96.3541 23.7943L91.0927 31.1314H95.0563L103.895 9.63429L106 7.61143V7.47429H99.5811V7.57714L102.282 9.46286L97.8974 19.8514L92.5658 9.46286L95.1615 7.57714V7.47429H86.8484V7.61143L89.0933 9.63429Z" fill="#0F0E0D"/>
</svg>
