<svg width="16" height="16" viewBox="0 0 16 16" fill="none" xmlns="http://www.w3.org/2000/svg">
<path d="M6.86724 3.52039C5.27822 3.92449 4.03165 5.1933 3.36557 6.84227C0.927239 12.8216 10.7285 12.2943 13.4682 8.64361C12.9973 6.49295 9.83639 4.28236 6.86724 3.52039Z" fill="#1302E7"/>
<path d="M8.69595 3.43818C8.08705 3.3421 7.46501 3.37006 6.86719 3.52037C9.83633 4.28234 12.9973 6.49294 13.475 8.64359C13.654 8.40814 13.8035 8.15168 13.9202 7.8799C14.6291 6.03061 10.4374 3.70359 8.69595 3.43818Z" fill="#6763FB"/>
<path d="M3.36542 6.84227C4.03665 5.1933 5.27807 3.93134 6.86709 3.52039C5.45616 3.15738 4.08802 3.12142 3.07433 3.57518C1.30209 4.41592 2.00071 8.5426 3.17535 10.4912C4.93048 13.2531 8.34653 13.1984 11.0879 12.0083C13.1358 11.0939 13.7489 9.8799 13.4749 8.64361C10.7335 12.2926 0.927092 12.8216 3.36542 6.84227Z" fill="#47CDFB"/>
<path d="M9.30185 6.356C9.12302 6.3563 8.94622 6.39376 8.78262 6.46596C8.61903 6.53818 8.47223 6.64359 8.35152 6.77551C8.17662 6.58347 7.94774 6.4488 7.69491 6.38921C7.44208 6.32961 7.17714 6.34787 6.93489 6.44159C6.69263 6.5353 6.48439 6.7001 6.33748 6.91432C6.1906 7.12856 6.11194 7.3822 6.11182 7.64196V9.2207H6.79674V7.64196C6.79674 7.48028 6.86096 7.32522 6.97528 7.21092C7.08961 7.0966 7.24464 7.03237 7.40632 7.03237C7.56799 7.03237 7.72304 7.0966 7.83736 7.21092C7.95167 7.32522 8.01589 7.48028 8.01589 7.64196V9.2207H8.70083V7.64196C8.70083 7.48028 8.76504 7.32522 8.87936 7.21092C8.99368 7.0966 9.14874 7.03237 9.3104 7.03237C9.47208 7.03237 9.62712 7.0966 9.74144 7.21092C9.85576 7.32522 9.91999 7.48028 9.91999 7.64196V9.2207H10.6049V7.64196C10.6047 7.47168 10.5707 7.30316 10.505 7.14612C10.4392 6.98908 10.3429 6.84664 10.2217 6.72706C10.1005 6.60746 9.95685 6.5131 9.79894 6.44941C9.64105 6.38572 9.47208 6.35398 9.30185 6.356Z" fill="white"/>
<path d="M5.80731 5.39374C5.71186 5.39509 5.61892 5.42461 5.54017 5.4786C5.46143 5.53258 5.40038 5.60861 5.3647 5.69718C5.32901 5.78573 5.3203 5.88285 5.33962 5.97636C5.35895 6.06985 5.40546 6.15556 5.47333 6.22272C5.54119 6.28986 5.62737 6.33548 5.72108 6.35383C5.81477 6.37216 5.91179 6.36242 5.99998 6.32582C6.08816 6.28921 6.16355 6.22737 6.2167 6.14806C6.26986 6.06874 6.29841 5.97551 6.29874 5.88003C6.29696 5.75073 6.24444 5.6273 6.15252 5.53633C6.0606 5.44538 5.93663 5.39417 5.80731 5.39374Z" fill="white"/>
</svg>
