<svg width="44" height="41" viewBox="0 0 44 41" fill="none" xmlns="http://www.w3.org/2000/svg">
<path d="M13.5333 6.4C13.5333 2.86538 16.3987 0 19.9333 0H40.7333C42.5006 0 43.9333 1.43269 43.9333 3.2V36.8C43.9333 38.5673 42.5006 40 40.7333 40H19.9333C16.3987 40 13.5333 37.1346 13.5333 33.6V6.4Z" fill="#CCCAC6"/>
<path d="M40.7333 30.4004H18.3333V35.2004H40.7333V30.4004Z" fill="#F2F1F0"/>
<path d="M2.36819 40.0607C1.93666 40.0607 1.53832 39.8947 1.20637 39.596C0.575661 38.9653 0.575661 37.9362 1.20637 37.3055L15.3142 23.1976C15.945 22.5669 16.974 22.5669 17.6047 23.1976C18.2354 23.8283 18.2354 24.8574 17.6047 25.4881L3.53002 39.596C3.19807 39.9279 2.79973 40.0607 2.36819 40.0607Z" fill="#524F49"/>
<path d="M16.4418 34.3174C21.9418 34.3174 26.4003 29.8588 26.4003 24.3589C26.4003 18.859 21.9418 14.4004 16.4418 14.4004C10.9419 14.4004 6.48334 18.859 6.48334 24.3589C6.48334 29.8588 10.9419 34.3174 16.4418 34.3174Z" fill="#524F49"/>
<path d="M16.4427 30.9968C20.1093 30.9968 23.0817 28.0244 23.0817 24.3578C23.0817 20.6911 20.1093 17.7188 16.4427 17.7188C12.776 17.7188 9.80365 20.6911 9.80365 24.3578C9.80365 28.0244 12.776 30.9968 16.4427 30.9968Z" fill="#FAFAF9"/>
<path d="M16.4427 17.7188C12.7912 17.7188 9.80365 20.7063 9.80365 24.3578C9.80365 28.0092 12.7912 30.9968 16.4427 30.9968C20.0941 30.9968 23.0817 28.0092 23.0817 24.3578H16.4427V17.7188Z" fill="#E6E5E3"/>
<path d="M16.4419 27.6781C18.2752 27.6781 19.7614 26.1919 19.7614 24.3586C19.7614 22.5253 18.2752 21.0391 16.4419 21.0391C14.6086 21.0391 13.1224 22.5253 13.1224 24.3586C13.1224 26.1919 14.6086 27.6781 16.4419 27.6781Z" fill="#E6E5E3"/>
</svg>
