<svg width="72" height="72" viewBox="0 0 72 72" fill="none" xmlns="http://www.w3.org/2000/svg">
<path fill-rule="evenodd" clip-rule="evenodd" d="M22.5576 9.11523C18.1031 9.11523 14.4921 12.7263 14.4921 17.1807V54.8197C14.4921 59.2743 18.1031 62.8852 22.5576 62.8852H52.1311C55.1008 62.8852 57.5081 60.478 57.5081 57.5082V14.4922C57.5081 11.5226 55.1008 9.11523 52.1311 9.11523H22.5576ZM19.8691 54.8197C19.8691 56.3046 21.0728 57.5082 22.5576 57.5082H52.1311V52.1312H22.5576C21.0728 52.1312 19.8691 53.3349 19.8691 54.8197ZM27.9346 19.8692C26.4498 19.8692 25.2461 21.0729 25.2461 22.5577C25.2461 24.0425 26.4498 25.2462 27.9346 25.2462H44.0656C45.5504 25.2462 46.7541 24.0425 46.7541 22.5577C46.7541 21.0729 45.5504 19.8692 44.0656 19.8692H27.9346ZM25.2461 33.3117C25.2461 31.8269 26.4498 30.6232 27.9346 30.6232H36.0001C37.4849 30.6232 38.6886 31.8269 38.6886 33.3117C38.6886 34.7966 37.4849 36.0002 36.0001 36.0002H27.9346C26.4498 36.0002 25.2461 34.7966 25.2461 33.3117Z" fill="#CCCAC6"/>
</svg>
