<svg width="24" height="24" viewBox="0 0 24 24" fill="none" xmlns="http://www.w3.org/2000/svg">
<path d="M6 1.25H13.7578C14.487 1.25012 15.1865 1.54005 15.7021 2.05566L19.9443 6.29785C20.46 6.81347 20.7499 7.51301 20.75 8.24219V20C20.75 21.5188 19.5188 22.75 18 22.75H6C4.48122 22.75 3.25 21.5188 3.25 20V4C3.25 2.48122 4.48122 1.25 6 1.25Z" fill="#FAFAF9" stroke="#CCCAC6" stroke-width="0.5"/>
<path d="M7.77703 17C9.56757 17 12.4054 9.90541 12.4054 7.81081C12.4054 7.37162 12.0338 7 11.6284 7C11.223 7 10.9527 7.50676 10.9527 8.08108C10.9527 11.6622 14.7365 14.5 16.1892 14.5C16.5781 14.5 17 14.3649 17 13.8243C17 13.2838 16.4595 12.9797 15.8176 12.9797C12.4054 12.9797 7 15.1081 7 16.3243C7 16.7635 7.30405 17 7.77703 17Z" stroke="#E7000B" stroke-width="1.25"/>
</svg>
