<svg width="72" height="72" viewBox="0 0 72 72" fill="none" xmlns="http://www.w3.org/2000/svg">
<path d="M27.6104 9C29.7253 9 31.7009 10.0575 32.874 11.8174L37.3223 18.4893H60.9326C64.4263 18.4893 67.2587 21.3209 67.2588 24.8145V56.4443C67.2587 59.938 64.4263 62.7695 60.9326 62.7695H10.3262C6.83255 62.7695 4.00012 59.938 4 56.4443V15.3262C4 11.8325 6.83248 9 10.3262 9H27.6104ZM36 31C33.2386 31 31 33.2386 31 36V38H30C28.8954 38 28 38.8954 28 40V49C28 50.1046 28.8954 51 30 51H42C43.1046 51 44 50.1046 44 49V40C44 38.8954 43.1046 38 42 38H41V36C41 33.2386 38.7614 31 36 31ZM36 42C36.5523 42 37 42.4477 37 43V46C37 46.5523 36.5523 47 36 47C35.4477 47 35 46.5523 35 46V43C35 42.4477 35.4477 42 36 42ZM36 33C37.6569 33 39 34.3432 39 36V38H33V36C33 34.3432 34.3431 33 36 33Z" fill="#CCCAC6"/>
</svg>
