<svg width="72" height="72" viewBox="0 0 72 72" fill="none" xmlns="http://www.w3.org/2000/svg">
<path d="M27.6104 9C29.7253 9 31.7009 10.0575 32.874 11.8174L37.3223 18.4893H60.9326C64.4263 18.4893 67.2587 21.3209 67.2588 24.8145V56.4443C67.2587 59.938 64.4263 62.7695 60.9326 62.7695H10.3262C6.83255 62.7695 4.00012 59.938 4 56.4443V15.3262C4 11.8325 6.83248 9 10.3262 9H27.6104ZM31.5 41C28.0293 41 24.8605 43.8568 24.5029 48.9297C24.4834 49.2064 24.5794 49.4786 24.7686 49.6816C24.9577 49.8845 25.2226 50 25.5 50H37.5C37.7774 50 38.0423 49.8845 38.2314 49.6816C38.4206 49.4786 38.5166 49.2064 38.4971 48.9297C38.1395 43.8568 34.9707 41 31.5 41ZM40.499 41C39.4971 41.0001 38.5203 41.2384 37.6289 41.6992C39.2265 43.4103 40.2852 45.8532 40.4922 48.7891C40.5214 49.2041 40.464 49.6159 40.3281 50H46.499C47.079 50 47.5379 49.5082 47.4971 48.9297C47.1395 43.8568 43.9697 41 40.499 41ZM31.5 32C29.2909 32 27.5 33.7909 27.5 36C27.5 38.2091 29.2909 40 31.5 40C33.7091 40 35.5 38.2091 35.5 36C35.5 33.7909 33.7091 32 31.5 32ZM40.5 32C38.2909 32 36.5 33.7909 36.5 36C36.5 38.2091 38.2909 40 40.5 40C42.7091 40 44.5 38.2091 44.5 36C44.5 33.7909 42.7091 32 40.5 32Z" fill="#CCCAC6"/>
</svg>
