<svg width="24" height="24" viewBox="0 0 24 24" fill="none" xmlns="http://www.w3.org/2000/svg">
<path fill-rule="evenodd" clip-rule="evenodd" d="M5 2C3.34315 2 2 3.34315 2 5V19C2 20.6569 3.34315 22 5 22H19C20.6569 22 22 20.6569 22 19V5C22 3.34315 20.6569 2 19 2H5ZM13 8C13 7.44772 12.5523 7 12 7C11.4477 7 11 7.44772 11 8V10.2768L8.99613 9.13174C8.51661 8.85773 7.90576 9.02433 7.63174 9.50385C7.35774 9.98337 7.52433 10.5942 8.00385 10.8682L9.98442 12L8.00385 13.1317C7.52433 13.4058 7.35774 14.0166 7.63174 14.4961C7.90576 14.9756 8.51661 15.1422 8.99613 14.8682L11 13.7232V16C11 16.5523 11.4477 17 12 17C12.5523 17 13 16.5523 13 16V13.7232L15.0038 14.8682C15.4834 15.1422 16.0942 14.9756 16.3682 14.4961C16.6422 14.0166 16.4756 13.4058 15.9961 13.1317L14.0156 12L15.9961 10.8682C16.4756 10.5942 16.6422 9.98337 16.3682 9.50385C16.0942 9.02433 15.4834 8.85773 15.0038 9.13174L13 10.2768V8Z" fill="#100F0C"/>
</svg>
