<svg width="24" height="24" viewBox="0 0 24 24" fill="none" xmlns="http://www.w3.org/2000/svg">
<path d="M11 4.00001V3.00001H9.00001V4.00001H11ZM9.00001 20V21H11V20H9.00001ZM4.00001 9.00001H3.00001V11H4.00001V9.00001ZM20 11H21V9.00001H20V11ZM19 5.6V18.4H21V5.6H19ZM18.4 19H5.6V21H18.4V19ZM5.00001 18.4V5.6H3.00001V18.4H5.00001ZM5.6 5.00001H18.4V3.00001H5.6V5.00001ZM5.6 19C5.30347 19 5.14123 18.9992 5.02464 18.9897C4.91973 18.9811 4.9425 18.9707 5.00001 19L4.09203 20.782C4.36345 20.9203 4.63319 20.9644 4.86178 20.9831C5.0787 21.0008 5.33647 21 5.6 21V19ZM3.00001 18.4C3.00001 18.6635 2.99922 18.9213 3.01695 19.1382C3.03562 19.3668 3.0797 19.6366 3.218 19.908L5.00001 19C5.02931 19.0575 5.01888 19.0803 5.01031 18.9754C5.00079 18.8588 5.00001 18.6965 5.00001 18.4H3.00001ZM5.00001 19L3.218 19.908C3.40974 20.2843 3.7157 20.5903 4.09203 20.782L5.00001 19ZM19 18.4C19 18.6965 18.9992 18.8588 18.9897 18.9754C18.9811 19.0803 18.9707 19.0575 19 19L20.782 19.908C20.9203 19.6366 20.9644 19.3668 20.9831 19.1382C21.0008 18.9213 21 18.6635 21 18.4H19ZM18.4 21C18.6635 21 18.9213 21.0008 19.1382 20.9831C19.3668 20.9644 19.6366 20.9203 19.908 20.782L19 19C19.0575 18.9707 19.0803 18.9811 18.9754 18.9897C18.8588 18.9992 18.6965 19 18.4 19V21ZM19 19L19.908 20.782C20.2843 20.5903 20.5903 20.2843 20.782 19.908L19 19ZM21 5.6C21 5.33647 21.0008 5.0787 20.9831 4.86178C20.9644 4.63319 20.9203 4.36345 20.782 4.09203L19 5.00001C18.9707 4.9425 18.9811 4.91973 18.9897 5.02464C18.9992 5.14123 19 5.30347 19 5.6H21ZM18.4 5.00001C18.6965 5.00001 18.8588 5.00079 18.9754 5.01031C19.0803 5.01888 19.0575 5.02931 19 5.00001L19.908 3.218C19.6366 3.0797 19.3668 3.03562 19.1382 3.01695C18.9213 2.99922 18.6635 3.00001 18.4 3.00001V5.00001ZM20.782 4.09203C20.5903 3.7157 20.2843 3.40974 19.908 3.218L19 5.00001L20.782 4.09203ZM5.00001 5.6C5.00001 5.30347 5.00079 5.14123 5.01031 5.02464C5.01888 4.91973 5.02931 4.9425 5.00001 5.00001L3.218 4.09203C3.0797 4.36345 3.03562 4.63319 3.01695 4.86178C2.99922 5.0787 3.00001 5.33647 3.00001 5.6H5.00001ZM5.6 3.00001C5.33647 3.00001 5.0787 2.99922 4.86178 3.01695C4.63319 3.03562 4.36345 3.0797 4.09203 3.218L5.00001 5.00001C4.9425 5.02931 4.91973 5.01888 5.02464 5.01031C5.14123 5.00079 5.30347 5.00001 5.6 5.00001V3.00001ZM5.00001 5.00001L4.09203 3.218C3.7157 3.40974 3.40974 3.7157 3.218 4.09203L5.00001 5.00001ZM9.00001 4.00001V10H11V4.00001H9.00001ZM9.00001 10V20H11V10H9.00001ZM4.00001 11H10V9.00001H4.00001V11ZM10 11H20V9.00001H10V11Z" fill="black"/>
</svg>
