<svg width="24" height="24" viewBox="0 0 24 24" fill="none" xmlns="http://www.w3.org/2000/svg">
<path d="M4 3C3.44772 3 3 3.44772 3 4C3 4.55228 3.44772 5 4 5H20C20.5523 5 21 4.55228 21 4C21 3.44772 20.5523 3 20 3H4Z" fill="black"/>
<path d="M8 7C6.89543 7 6 7.89543 6 9V19C6 20.1046 6.89543 21 8 21H9C10.1046 21 11 20.1046 11 19V9C11 7.89543 10.1046 7 9 7H8Z" fill="black"/>
<path d="M15 7C13.8954 7 13 7.89543 13 9V15C13 16.1046 13.8954 17 15 17H16C17.1046 17 18 16.1046 18 15V9C18 7.89543 17.1046 7 16 7H15Z" fill="black"/>
</svg>
